<svg version="1.1" xmlns="http://www.w3.org/2000/svg" xmlns:xlink="http://www.w3.org/1999/xlink" x="0px" y="0px" width="24" height="24" viewBox="0 0 24 24" style="enable-background:new 0 0 24 24;" xml:space="preserve">
	<path fill="#6e8efb" d="M11.2,4.1v5.5h-8c-0.4,0-0.8,0.4-0.8,0.8v3.2H0.8c-0.4,0-0.8,0.4-0.8,0.8v4.7c0,0.4,0.4,0.8,0.8,0.8h4.7 c0.4,0,0.8-0.4,0.8-0.8v-4.7c0-0.4-0.4-0.8-0.8-0.8H4v-2.4h7.3v2.4H9.6c-0.4,0-0.8,0.4-0.8,0.8v4.7c0,0.4,0.4,0.8,0.8,0.8h4.7 c0.4,0,0.8-0.4,0.8-0.8v-4.7c0-0.4-0.4-0.8-0.8-0.8h-1.6v-2.4H20v2.4h-1.6c-0.4,0-0.8,0.4-0.8,0.8v4.7c0,0.4,0.4,0.8,0.8,0.8h4.7 c0.4,0,0.8-0.4,0.8-0.8v-4.7c0-0.4-0.4-0.8-0.8-0.8h-1.6v-3.2c0-0.4-0.4-0.8-0.8-0.8h-8V4.1H11.2z"/>
</svg>
